<?xml version="1.0" encoding="utf-8"?>
<!-- Generator: Adobe Illustrator 21.0.0, SVG Export Plug-In . SVG Version: 6.00 Build 0)  -->
<svg version="1.1" id="图层_1" xmlns="http://www.w3.org/2000/svg" xmlns:xlink="http://www.w3.org/1999/xlink" x="0px" y="0px"
	 viewBox="0 0 1000 1000" style="enable-background:new 0 0 1000 1000;" xml:space="preserve">
<style type="text/css">
	.st0{fill:#7C181D;}
	.st1{fill:#DB6F71;}
	.st2{fill:#FFFFFF;}
	.st3{fill:#E84729;}
	.st4{fill:#231815;}
</style>
<path class="st0" d="M582.7,536.2c-2.3,12.2-11.2,55.9-27.1,95.7c-26.2-23.8-52.7-34.6-78.7-32.2c-28.9,2.7-49.2,21-58.5,31.4
	c-18.5-39.5-29.7-82.6-32.8-95c47.7-33.4,84.6-53.3,99-53.3C499.1,482.8,535.7,502.7,582.7,536.2z"/>
<path class="st1" d="M495,704.4c-30.5,3.2-55.3-31.6-71.2-62.7c6.1-7.4,25.8-28.6,54.4-31.2c23.7-2.2,48.3,8.6,73.1,32
	C534.3,681,514.9,702.4,495,704.4z"/>
<ellipse transform="matrix(0.2298 -0.9732 0.9732 0.2298 -80.6569 504.8489)" class="st2" cx="278.6" cy="303.4" rx="31.4" ry="31.4"/>
<ellipse transform="matrix(0.9732 -0.2298 0.2298 0.9732 -51.0326 168.2858)" class="st2" cx="697" cy="303.2" rx="31.4" ry="31.4"/>
<path class="st3" d="M117.1,427C56.5,427,7.2,476.3,7.2,536.9s49.3,109.9,109.9,109.9S227,597.5,227,536.9
	C227,476.3,177.7,427,117.1,427z"/>
<path class="st3" d="M858.4,427.2c-60.6,0-109.9,49.3-109.9,109.9S797.8,647,858.4,647s109.9-49.3,109.9-109.9
	S919,427.2,858.4,427.2z"/>
<path class="st4" d="M601.1,536c0,0-3.4-2.5-9.2-6.6C562,508,508.3,472,484.8,472c-23.4,0-77.8,35.9-108.2,57.4c0,0,0,0-0.1,0
	c-5.7,4.1-9.2,6.6-9.2,6.6c-2.4,1.7-3,5.1-1.3,7.5c1.1,1.5,2.7,2.3,4.4,2.3c1.1,0,2.2-0.3,3.1-1c0,0,1-0.7,2.7-1.9
	c4.5,17.5,16.7,61.3,35.7,99.7c0.2,0.7,0.5,1.4,1,2c23.6,47.1,49.7,70.9,77.7,70.9c1.7,0,3.5-0.1,5.2-0.3
	c24.9-2.5,47.4-26.7,66.7-72c16.4-38.4,26.1-82.1,29.7-100.1c1.4,1,2.2,1.6,2.2,1.6c2.4,1.8,5.8,1.3,7.5-1.2
	C604,541.1,603.5,537.7,601.1,536z M582.9,536.1c-2.3,12.2-11.2,55.9-27.1,95.7c-26.2-23.8-52.7-34.6-78.7-32.2
	c-28.9,2.7-49.2,21-58.5,31.4c-18.5-39.5-29.7-82.6-32.8-95c47.7-33.4,84.6-53.3,99-53.3C499.3,482.7,535.8,502.6,582.9,536.1z
	 M494.9,704.3c-30.5,3.2-55.3-31.6-71.2-62.7c6.1-7.4,25.8-28.6,54.4-31.2c23.7-2.2,48.3,8.6,73.1,32
	C534.2,680.9,514.8,702.3,494.9,704.3z M253.9,245.9c-45.5,0-82.3,36.8-82.3,82.3s36.8,82.3,82.3,82.3s82.3-36.8,82.3-82.3
	S299.4,245.9,253.9,245.9z M309.4,310.5c-4,16.9-20.9,27.3-37.8,23.3s-27.3-20.9-23.3-37.8s20.9-27.3,37.8-23.3
	C302.9,276.7,313.3,293.6,309.4,310.5z M722.1,245.9c-45.5,0-82.3,36.8-82.3,82.3s36.8,82.3,82.3,82.3s82.3-36.8,82.3-82.3
	S767.6,245.9,722.1,245.9z M704.3,333.7c-16.9,4-33.8-6.5-37.8-23.3c-4-16.9,6.5-33.8,23.3-37.8c16.9-4,33.8,6.5,37.8,23.3
	C731.6,312.8,721.2,329.7,704.3,333.7z M117.1,654C52.5,654,0,601.5,0,536.9s52.5-117.1,117.1-117.1s117.1,52.5,117.1,117.1
	S181.7,654,117.1,654z M117.1,427C56.5,427,7.2,476.3,7.2,536.9s49.3,109.9,109.9,109.9S227,597.5,227,536.9
	C227,476.3,177.7,427,117.1,427z M858.4,654.2c-64.6,0-117.1-52.5-117.1-117.1S793.8,420,858.4,420s117.1,52.5,117.1,117.1
	S923,654.2,858.4,654.2z M858.4,427.2c-60.6,0-109.9,49.3-109.9,109.9S797.8,647,858.4,647s109.9-49.3,109.9-109.9
	S919,427.2,858.4,427.2z M498.9,416.4c-2.8-1-7-0.5-11.5,2.5c-4.5-3-8.6-3.4-11.5-2.5c-18.9,6.4,11.5,23.4,11.5,23.4
	S517.8,422.8,498.9,416.4z"/>
</svg>
